<svg width="30" height="30" viewBox="0 0 30 30" fill="none" xmlns="http://www.w3.org/2000/svg">
<path d="M27.5859 18.0547V21.6247C27.6258 21.6326 28.8376 21.6247 28.8376 21.6247" stroke="white" stroke-width="1.125" stroke-miterlimit="10" stroke-linecap="round" stroke-linejoin="round"/>
<path d="M9.64844 18.0547V20.5117C9.64844 20.9311 9.85572 21.2133 10.2081 21.4381C10.3803 21.5481 10.5971 21.6263 10.8666 21.6263C11.101 21.6263 11.2955 21.5721 11.4565 21.4908C11.8679 21.2851 12.131 20.9694 12.131 20.5102V18.0547" stroke="white" stroke-width="1.125" stroke-miterlimit="10" stroke-linecap="round" stroke-linejoin="round"/>
<path d="M14.375 18.0547H16.3489" stroke="white" stroke-width="1.125" stroke-miterlimit="10" stroke-linecap="round" stroke-linejoin="round"/>
<path d="M15.3594 18.1641V21.6224" stroke="white" stroke-width="1.125" stroke-miterlimit="10" stroke-linecap="round" stroke-linejoin="round"/>
<path d="M19.0508 19.9219L20.5512 21.6264" stroke="white" stroke-width="1.125" stroke-miterlimit="10" stroke-linecap="round" stroke-linejoin="round"/>
<path d="M18.6211 18.0547V21.6263" stroke="white" stroke-width="1.125" stroke-miterlimit="10" stroke-linecap="round" stroke-linejoin="round"/>
<path d="M20.552 18.9826C20.552 19.4945 20.1023 19.9106 19.5714 19.9106C19.3067 19.9106 18.6291 19.9154 18.6291 19.9154C18.6291 19.9154 18.6243 19.2409 18.6243 18.9826C18.6243 18.7706 18.6211 18.0547 18.6211 18.0547C18.6211 18.0547 19.2589 18.0547 19.5714 18.0547C20.1023 18.0546 20.552 18.4692 20.552 18.9826Z" stroke="white" stroke-width="1.125" stroke-miterlimit="10" stroke-linecap="round" stroke-linejoin="round"/>
<path d="M1.16406 21.6272V18.062L3.57488 21.5523C3.61954 21.6177 3.66736 21.5858 3.66736 21.5076V18.0078" stroke="white" stroke-width="1.125" stroke-miterlimit="10" stroke-linecap="round" stroke-linejoin="round"/>
<path d="M7.40363 18.0547H5.89844V21.6263H7.40363" stroke="white" stroke-width="1.125" stroke-miterlimit="10" stroke-linecap="round" stroke-linejoin="round"/>
<path d="M7.29361 19.8438H5.89844" stroke="white" stroke-width="1.125" stroke-miterlimit="10" stroke-linecap="round" stroke-linejoin="round"/>
<path d="M26.2031 15.0316V11.2814L28.7383 14.9518C28.7846 15.0204 28.8356 14.9869 28.8356 14.904L28.8005 11.2734" stroke="white" stroke-width="1.125" stroke-miterlimit="10" stroke-linecap="round" stroke-linejoin="round"/>
<path d="M18.1907 12.1392C18.1907 12.616 17.8033 13.0034 17.3266 13.0034C17.089 13.0034 16.2344 13.0066 16.2344 13.0066C16.2344 13.0066 16.2344 12.38 16.2344 12.1392C16.2344 11.9415 16.2344 11.2734 16.2344 11.2734C16.2344 11.2734 17.0459 11.2734 17.3266 11.2734C17.8033 11.2734 18.1907 11.6609 18.1907 12.1392Z" stroke="white" stroke-width="1.125" stroke-miterlimit="10" stroke-linecap="round" stroke-linejoin="round"/>
<path d="M18.5272 14.0203C18.5272 14.5784 18.0759 15.0312 17.5163 15.0312C17.2405 15.0312 16.2344 15.036 16.2344 15.036C16.2344 15.036 16.2344 14.3009 16.2344 14.0203C16.2344 13.7891 16.2344 13.0078 16.2344 13.0078C16.2344 13.0078 17.1894 13.0078 17.5163 13.0078C18.0759 13.0078 18.5272 13.4606 18.5272 14.0203Z" stroke="white" stroke-width="1.125" stroke-miterlimit="10" stroke-linecap="round" stroke-linejoin="round"/>
<path d="M4.09306 11.5955C3.7933 11.393 3.43133 11.2734 3.04231 11.2734C2.00432 11.2734 1.16406 12.1153 1.16406 13.1533C1.16406 14.1897 2.00432 15.0316 3.04231 15.0316C3.46322 15.0316 3.81085 14.8928 4.0723 14.6585C4.1281 14.609 4.17754 14.5564 4.22536 14.5006" stroke="white" stroke-width="1.125" stroke-miterlimit="10" stroke-linecap="round" stroke-linejoin="round"/>
<path d="M12.207 13.2422L13.7855 15.0359" stroke="white" stroke-width="1.125" stroke-miterlimit="10" stroke-linecap="round" stroke-linejoin="round"/>
<path d="M11.7578 11.2734V15.0316" stroke="white" stroke-width="1.125" stroke-miterlimit="10" stroke-linecap="round" stroke-linejoin="round"/>
<path d="M13.7875 12.2508C13.7875 12.7898 13.314 13.2267 12.7559 13.2267C12.4785 13.2267 11.7642 13.2314 11.7642 13.2314C11.7642 13.2314 11.7594 12.5219 11.7594 12.2508C11.7594 12.0276 11.7578 11.2734 11.7578 11.2734C11.7578 11.2734 12.4275 11.2734 12.756 11.2734C13.314 11.2734 13.7875 11.7119 13.7875 12.2508Z" stroke="white" stroke-width="1.125" stroke-miterlimit="10" stroke-linecap="round" stroke-linejoin="round"/>
<path d="M24.0964 13.1533C24.0964 12.1185 23.2529 11.2734 22.2181 11.2734C21.1834 11.2734 20.3398 12.1185 20.3398 13.1533C20.3398 14.1865 21.1833 15.0316 22.2181 15.0316C23.2529 15.0316 24.0964 14.1865 24.0964 13.1533Z" stroke="white" stroke-width="1.125" stroke-miterlimit="10" stroke-linecap="round" stroke-linejoin="round"/>
<path d="M6.93359 14.3906H9.02711" stroke="white" stroke-width="1.125" stroke-miterlimit="10" stroke-linecap="round" stroke-linejoin="round"/>
<path d="M6.48828 15.0312L7.89937 11.3273C7.92806 11.2555 8.02694 11.2555 8.05563 11.3273L9.45395 15.0312" stroke="white" stroke-width="1.125" stroke-miterlimit="10" stroke-linecap="round" stroke-linejoin="round"/>
<path d="M23.1523 21.0547H25.0115" stroke="white" stroke-width="1.125" stroke-miterlimit="10" stroke-linecap="round" stroke-linejoin="round"/>
<path d="M22.7578 21.6234L24.0111 18.3357C24.0366 18.2735 24.1243 18.2735 24.1498 18.3357L25.3918 21.6234" stroke="white" stroke-width="1.125" stroke-miterlimit="10" stroke-linecap="round" stroke-linejoin="round"/>
<path d="M10.8278 1.76486C10.646 3.0149 10.8756 4.1948 11.3507 5.18019C12.5354 7.64045 15.2412 8.88571 16.8723 7.00741C16.8899 6.98666 16.909 6.96438 16.9266 6.94205C17.4432 6.31385 17.6042 5.61866 17.4942 4.94259C17.1402 2.79012 14.0278 0.824131 10.8278 1.76486Z" stroke="white" stroke-width="1.125" stroke-miterlimit="10" stroke-linecap="round" stroke-linejoin="round"/>
<path d="M6.05469 7.95282C7.44665 6.4955 9.19737 5.38417 11.1649 4.76069M17.3658 4.46094C19.7973 4.97596 21.961 6.21965 23.6161 7.95282M23.6161 24.7202C21.4062 27.0353 18.2889 28.4767 14.8354 28.4767C11.3818 28.4767 8.26621 27.0353 6.05469 24.7202" stroke="white" stroke-width="1.125" stroke-miterlimit="10" stroke-linecap="round" stroke-linejoin="round"/>
<path d="M14.1445 4.625C15.4935 5.47325 16.871 6.61012 18.2486 8.64142" stroke="white" stroke-width="1.125" stroke-miterlimit="10" stroke-linecap="round" stroke-linejoin="round"/>
</svg>
