<svg width="16" height="17" viewBox="0 0 16 17" fill="none" xmlns="http://www.w3.org/2000/svg">
<path d="M5.5 9.19141C6.88067 9.19141 8 10.3107 8 11.6914C8 13.0721 6.88067 14.1914 5.5 14.1914C4.11933 14.1914 3 13.0721 3 11.6914V11.2707" stroke="black" stroke-linecap="round" stroke-linejoin="round"/>
<path d="M10.5 9.19141C9.11933 9.19141 8 10.3107 8 11.6914C8 13.0721 9.11933 14.1914 10.5 14.1914C11.8807 14.1914 13 13.0721 13 11.6914V11.2707" stroke="black" stroke-linecap="round" stroke-linejoin="round"/>
<path d="M4.50283 11.4414H4.00283C2.54083 11.4427 1.29083 10.3894 1.0435 8.94874C0.796166 7.50741 1.62417 6.09807 3.00283 5.61207V5.19141C3.00283 3.81074 4.12217 2.69141 5.50283 2.69141C6.88417 2.69141 8.00283 3.81074 8.00283 5.19141V11.6914" stroke="black" stroke-linecap="round" stroke-linejoin="round"/>
<path d="M11.5 11.4414H12C13.462 11.4427 14.712 10.3894 14.9593 8.94874C15.2067 7.50741 14.3787 6.09807 13 5.61207V5.19141C13 3.81074 11.8807 2.69141 10.5 2.69141C9.11933 2.69141 8 3.81074 8 5.19141" stroke="black" stroke-linecap="round" stroke-linejoin="round"/>
<path d="M12.5 7.69141H12.25C11.2833 7.69141 10.5 6.90807 10.5 5.94141V5.69141" stroke="black" stroke-linecap="round" stroke-linejoin="round"/>
<path d="M3.5 7.69141H3.75C4.71667 7.69141 5.5 6.90807 5.5 5.94141V5.69141" stroke="black" stroke-linecap="round" stroke-linejoin="round"/>
</svg>
