<svg width="114" height="140" viewBox="0 0 114 140" fill="none" xmlns="http://www.w3.org/2000/svg">
<path d="M97.5492 112.27C93.8722 108.923 91.6583 108.278 91.6462 110.443C91.6387 111.974 96.364 116.647 104.352 123.027C107.506 125.473 110.028 127.704 110.028 127.915C110.021 129.024 94.9871 136.177 92.6637 136.164C90.9743 136.155 89.6943 138.419 90.7971 139.481C91.5847 140.277 93.964 139.762 99.4143 137.521C114.548 131.426 116.461 129.165 110.948 123.802C109.478 122.315 106.588 119.817 104.538 118.222C102.541 116.627 99.3876 113.97 97.5492 112.27ZM4.79417 6.31131C5.99075 0.0342058 5.93839 -0.124798 4.1951 0.0769059C2.92714 0.228416 2.66117 0.544319 1.85182 3.65549C0.772676 7.8215 0.615431 17.0614 1.58864 22.4C4.71041 40.0543 14.2217 57.4796 28.5551 71.7627C34.0155 77.1787 38.0635 80.316 43.3276 83.0906L47.3805 85.2775L49.4679 89.7251C53.2233 97.9304 57.8375 103.606 65.9308 110.251C75.286 117.853 87.4935 125.207 94.9238 127.677C101.669 129.984 108.425 130.179 108.437 128.12C108.444 126.906 107.285 126.371 103.962 125.931C95.3093 124.827 83.621 119.007 71.3191 109.646C62.8552 103.21 57.1887 96.8959 53.7946 90.1712C52.281 87.0473 52.3344 86.8892 55.1821 87.4856C61.7743 88.7888 68.6564 85.4467 71.8049 79.444C76.5017 70.3869 74.529 55.009 67.4561 45.254C61.4308 36.9837 53.1925 37.3619 48.7084 46.1561C44.8651 53.6865 43.5194 67.778 45.6785 78.1925C45.8835 79.3025 45.8266 79.9362 45.4571 79.9341C44.19 79.9272 36.3037 74.0227 31.9979 69.8275C13.0941 51.4534 1.47322 24.2474 4.79417 6.31131ZM57.8066 43.0365C65.4617 43.0783 73.1164 62.1833 69.9912 73.4669C68.7509 78.107 66.2505 81.4201 62.7561 83.1965C61.0088 84.0847 56.2567 84.112 53.1469 83.1973C50.8276 82.551 50.5649 82.2854 50.0482 80.2762C49.7907 79.113 49.3765 77.6316 49.2214 77.0499C48.0819 73.1357 48.1965 62.1528 49.4996 55.7177C51.021 48.0165 54.3222 43.0177 57.8066 43.0365Z" fill="url(#paint0_linear_1107_12631)"/>
<defs>
<linearGradient id="paint0_linear_1107_12631" x1="104.017" y1="121.268" x2="11.0236" y2="48.9346" gradientUnits="userSpaceOnUse">
<stop stop-color="#7ADC51"/>
<stop offset="1" stop-color="#087B37"/>
</linearGradient>
</defs>
</svg>
