<svg width="16" height="17" viewBox="0 0 16 17" fill="none" xmlns="http://www.w3.org/2000/svg">
<path d="M2 8.69127H4.78133C5.82267 8.69127 6.66667 7.84727 6.66667 6.80594V6.80594C6.66667 6.30594 6.468 5.82594 6.11467 5.4726L4.478 3.83594" stroke="black" stroke-width="1.1" stroke-linecap="round" stroke-linejoin="round"/>
<path d="M12.196 12.9834L11.0114 11.2067C10.7967 10.8847 10.436 10.6914 10.0494 10.6914V10.6914C9.61135 10.6914 9.21135 10.4441 9.01535 10.0521L8.92669 9.87474C8.76402 9.54941 8.76402 9.16607 8.92669 8.84074L9.68202 7.33007C9.87735 6.93874 10.278 6.69141 10.716 6.69141H13.6547" stroke="black" stroke-width="1.1" stroke-linecap="round" stroke-linejoin="round"/>
<path d="M8 2.69141C11.3213 2.69141 14 5.37007 14 8.69141C14 12.0127 11.3213 14.6914 8 14.6914" stroke="black" stroke-width="1.1" stroke-linecap="round" stroke-linejoin="round"/>
<path d="M8 14.6914C4.67867 14.6914 2 12.0127 2 8.69141C2 5.37007 4.67867 2.69141 8 2.69141" stroke="black" stroke-width="1.1" stroke-linecap="round" stroke-linejoin="round"/>
</svg>
