<svg width="40" height="40" viewBox="0 0 40 40" fill="none" xmlns="http://www.w3.org/2000/svg">
<path d="M9.23211 24.8088H13.6324C13.6831 24.3933 13.7529 23.9655 13.8013 23.6875H9.07812C9.1484 24.0926 9.19678 24.4724 9.23211 24.8088Z" fill="white"/>
<path d="M35.7714 16.4688C35.1904 17.7183 34.4504 18.4375 33.7846 19.0842C33.2205 19.6321 32.7336 20.1052 32.4064 20.8229C31.9364 21.8547 31.8408 22.9476 32.1568 23.6757C32.2739 23.9456 32.4394 24.1468 32.6472 24.2805C34.4258 22.271 34.9604 20.1102 34.9673 20.0818C35.0161 19.8756 35.2219 19.7485 35.4292 19.7961C35.6354 19.8445 35.7637 20.0507 35.7153 20.2573C35.6877 20.3763 35.1831 22.4453 33.4943 24.4867C34.5103 24.4775 35.8889 23.8058 36.5471 22.3612C37.4548 20.3687 36.3877 17.7137 35.7714 16.4688Z" fill="white"/>
<path d="M11.7325 13.4456C11.6365 13.4398 11.5405 13.4375 11.4449 13.4375C10.2034 13.4375 9.01263 13.8964 8.14134 14.7193C7.29193 15.5215 6.82422 16.5817 6.82422 17.7041C6.82422 18.5908 7.12451 19.4521 7.69244 20.1947C8.25001 20.924 8.65321 21.8191 8.91971 22.915H13.9566C14.1387 22.1581 14.4939 21.0457 15.129 20.2666C15.776 19.4732 16.0951 18.5259 16.0517 17.5279C15.958 15.3713 14.0607 13.5784 11.7325 13.4456ZM12.5316 18.3957L11.5102 20.9819C11.4507 21.1329 11.3059 21.225 11.1527 21.225C11.1058 21.225 11.0582 21.2162 11.0117 21.1981C10.8144 21.1202 10.7176 20.8971 10.7955 20.7001L11.5555 18.7755L10.4273 19.0097C10.2818 19.0404 10.1324 18.984 10.0433 18.8657C9.95382 18.7478 9.93999 18.5889 10.008 18.4571L11.4299 15.7081C11.5275 15.5195 11.7586 15.4458 11.9475 15.5434C12.1361 15.6409 12.2098 15.8724 12.1123 16.061L11.0609 18.0935L12.0958 17.8785C12.234 17.8493 12.3769 17.8992 12.4679 18.0071C12.5589 18.115 12.5831 18.264 12.5312 18.3953L12.5316 18.3957Z" fill="white"/>
<path d="M9.31051 25.6068C9.31051 26.3602 9.92376 26.9734 10.6772 26.9734H12.2016C12.9378 26.9734 13.5687 26.222 13.5687 25.6068C13.5687 25.5957 13.5698 25.5818 13.5698 25.5703H9.30859C9.30975 25.5826 9.31051 25.5945 9.31051 25.6068Z" fill="white"/>
<path d="M30.4717 18.7937C30.3173 18.6486 30.3096 18.4055 30.4548 18.2511C30.5999 18.0964 30.8426 18.0895 30.9974 18.2339C31.0315 18.2657 31.6847 18.8847 32.1736 19.7138C32.4616 19.3167 32.7922 18.9827 33.137 18.6463C33.0598 18.4132 32.9627 18.1889 32.8294 17.9854C31.8932 16.5612 29.6691 15.8661 28.4219 15.5781C28.948 16.5208 29.1069 17.4509 29.2509 18.2934C29.38 19.0483 29.4913 19.7004 29.8392 20.2295C30.2524 20.8562 30.8107 21.3201 31.3568 21.514C31.4401 21.1799 31.5557 20.842 31.7078 20.5083C31.7093 20.5048 31.7112 20.5018 31.7128 20.4983C31.3 19.5871 30.4801 18.803 30.4717 18.7949V18.7937Z" fill="white"/>
<path d="M11.8305 9.39181C11.8305 9.17974 11.6586 9.00781 11.4465 9.00781C11.2344 9.00781 11.0625 9.17974 11.0625 9.39181V10.927C11.0625 11.1391 11.2344 11.311 11.4465 11.311C11.6586 11.311 11.8305 11.1391 11.8305 10.927V9.39181Z" fill="white"/>
<path d="M16.4388 13.3434C16.5425 13.3434 16.6461 13.3015 16.7214 13.2193L17.7609 12.0892C17.9045 11.9333 17.8945 11.6903 17.7382 11.5466C17.5823 11.403 17.3389 11.4134 17.1956 11.5693L16.1562 12.6994C16.0125 12.8553 16.0225 13.0984 16.1788 13.242C16.2525 13.31 16.3462 13.3434 16.4388 13.3434Z" fill="white"/>
<path d="M6.17259 13.2193C6.24824 13.3015 6.35153 13.3434 6.45521 13.3434C6.54814 13.3434 6.64107 13.31 6.7148 13.242C6.87109 13.0984 6.88107 12.8557 6.73745 12.6994L5.69797 11.5693C5.55473 11.4134 5.31166 11.403 5.15537 11.5466C4.99909 11.6903 4.9891 11.9329 5.13272 12.0892L6.17259 13.2193Z" fill="white"/>
<path d="M16.7215 22.9834C16.5778 22.8275 16.3352 22.8171 16.1789 22.9604C16.0226 23.104 16.0126 23.3471 16.1558 23.503L17.1953 24.6331C17.271 24.7153 17.3746 24.7571 17.4783 24.7571C17.5713 24.7571 17.6642 24.7237 17.7379 24.6557C17.8942 24.5121 17.9042 24.2691 17.7609 24.1131L16.7215 22.983V22.9834Z" fill="white"/>
<path d="M6.17203 22.9833L5.13254 24.1134C4.98893 24.2693 4.99929 24.5124 5.15558 24.656C5.22931 24.7236 5.32262 24.7574 5.41517 24.7574C5.51885 24.7574 5.62253 24.7155 5.69817 24.6334L6.73766 23.5033C6.88128 23.3474 6.87091 23.1043 6.71462 22.9607C6.55872 22.8171 6.31565 22.827 6.17203 22.9833Z" fill="white"/>
<path d="M4.25555 17.7207L2.72032 17.7188C2.50835 17.7188 2.33632 17.8904 2.33594 18.1024C2.33594 18.3143 2.5072 18.4864 2.71955 18.4867L4.25479 18.4887H4.25517C4.46714 18.4887 4.63879 18.317 4.63917 18.1051C4.63917 17.8931 4.46791 17.7211 4.25555 17.7207Z" fill="white"/>
<path d="M20.1774 17.7188L18.6414 17.7207C18.4295 17.7207 18.2574 17.8931 18.2578 18.1051C18.2578 18.317 18.4298 18.4887 18.6418 18.4887L20.1778 18.4867C20.3898 18.4867 20.5618 18.3143 20.5614 18.1024C20.5614 17.8904 20.3894 17.7188 20.1774 17.7188Z" fill="white"/>
<path d="M32.8507 25.1855C32.3323 25.7193 31.7179 26.2377 30.9998 26.6985C30.6887 26.8981 30.3278 26.9365 29.8363 26.9327C29.5175 26.9365 29.2257 27.0479 29.003 27.2706C28.7803 27.4933 28.6574 27.789 28.6574 28.1039V28.9948C28.6574 30.0892 27.7627 30.9839 26.6644 30.9839H23.7844C22.9319 30.9839 22.2407 30.2927 22.2407 29.4402V28.5148C22.2407 28.0886 21.8913 27.7391 21.4651 27.7391H19.8023C19.3761 27.7391 19.0267 28.0886 19.0267 28.5148V29.4402C19.0267 30.2927 18.3355 30.9839 17.483 30.9839H13.0516C11.9534 30.9839 11.0625 30.0892 11.0625 28.9948V27.7391H11.8305V28.9948C11.8305 29.6668 12.3796 30.2159 13.0516 30.2159H17.483C17.9092 30.2159 18.2587 29.8665 18.2587 29.4402V28.5148C18.2587 27.6662 18.9499 26.9711 19.8023 26.9711H21.4651C22.3175 26.9711 23.0087 27.6662 23.0087 28.5148V29.4402C23.0087 29.8665 23.3582 30.2159 23.7844 30.2159H26.6644C27.3403 30.2159 27.8894 29.6668 27.8894 28.9948V28.1039C27.8894 27.5817 28.0929 27.094 28.4654 26.7253C28.834 26.3567 29.3255 26.1532 29.8439 26.1647C30.251 26.1685 30.4545 26.1378 30.5851 26.0533C31.1611 25.6847 31.6641 25.2738 32.1057 24.8438C32.2708 24.9666 32.4513 25.0626 32.651 25.1279C32.7163 25.1509 32.7815 25.1701 32.8507 25.1855Z" fill="white"/>
</svg>
