<svg width="40" height="40" viewBox="0 0 40 40" fill="none" xmlns="http://www.w3.org/2000/svg">
<rect x="0.625" y="0.625" width="38.75" height="38.75" rx="19.375" stroke="#DAD7C4" stroke-width="1.25"/>
<g clip-path="url(#clip0_1231_2785)">
<path d="M28 19.5017C28 14.8073 24.1944 11.0017 19.5 11.0017C14.8056 11.0017 11 14.8073 11 19.5017C11 23.7443 14.1083 27.2608 18.1719 27.8984V21.9587H16.0137V19.5017H18.1719V17.629C18.1719 15.4987 19.4409 14.322 21.3825 14.322C22.3124 14.322 23.2852 14.488 23.2852 14.488V16.5798H22.2133C21.1574 16.5798 20.8281 17.235 20.8281 17.9072V19.5017H23.1855L22.8087 21.9587H20.8281V27.8984C24.8917 27.2608 28 23.7443 28 19.5017Z" fill="#100F0D"/>
<path d="M22.8106 21.957L23.1875 19.5H20.8301V17.9055C20.8301 17.2333 21.1594 16.5781 22.2153 16.5781H23.2871V14.4863C23.2871 14.4863 22.3144 14.3203 21.3844 14.3203C19.4428 14.3203 18.1738 15.497 18.1738 17.6273V19.5H16.0156V21.957H18.1738V27.8967C18.6066 27.9646 19.0501 28 19.502 28C19.9538 28 20.3973 27.9646 20.8301 27.8967V21.957H22.8106Z" fill="white"/>
</g>
<defs>
<clipPath id="clip0_1231_2785">
<rect width="17" height="17" fill="white" transform="translate(11 11)"/>
</clipPath>
</defs>
</svg>
