<!-- <svg width="40" height="40" viewBox="0 0 40 40" fill="none" xmlns="http://www.w3.org/2000/svg">
<rect x="0.625" y="0.625" width="38.75" height="38.75" rx="19.375" stroke="#DAD7C4" stroke-width="1.25"/>
<g clip-path="url(#clip0_194_176)">
<path d="M14.0255 26H16.4182V20.3429L13 17.8286V24.9983C13 25.5483 13.4625 26 14.0255 26Z" fill="#4285F4"/>
<path d="M24.6016 26H26.9943C27.5573 26 28.0198 25.5483 28.0198 24.9983V17.8286L24.6016 20.3233" fill="#34A853"/>
<path d="M24.6016 16.0018V20.3429L28.0198 17.8482V16.4929C28.0198 15.2554 26.5721 14.5482 25.5667 15.2947" fill="#FBBC04"/>
<path d="M16.418 20.3429V16.0018L20.5198 19.0072L24.6016 16.0018V20.3429L20.4997 23.3286" fill="#EA4335"/>
<path d="M13 16.4928V17.8285L16.4182 20.3232V16.0018L15.4531 15.2946C14.4477 14.5678 13 15.275 13 16.4928Z" fill="#C5221F"/>
</g>
<defs>
<clipPath id="clip0_194_176">
<rect width="15" height="11" fill="white" transform="translate(13 15)"/>
</clipPath>
</defs>
</svg> -->

<svg width="40" height="40" viewBox="0 0 40 40" fill="none" xmlns="http://www.w3.org/2000/svg">
<rect x="0.625" y="0.625" width="38.75" height="38.75" rx="19.375" stroke="#DAD7C4" stroke-width="1.25"/>
<g clip-path="url(#clip0_512_865)">
<path d="M14.0255 25.9996H16.4182V20.3424L13 17.8281V24.9978C13 25.5478 13.4625 25.9996 14.0255 25.9996Z" fill="#252323"/>
<path d="M24.6016 25.9996H26.9943C27.5573 25.9996 28.0198 25.5478 28.0198 24.9978V17.8281L24.6016 20.3228" fill="#252323"/>
<path d="M24.6016 16.0018V20.3429L28.0198 17.8482V16.4929C28.0198 15.2554 26.5721 14.5482 25.5667 15.2947" fill="#252323"/>
<path d="M16.418 20.343V16.002L20.5198 19.0073L24.6016 16.002V20.343L20.4997 23.3287" fill="#252323"/>
<path d="M13 16.4927V17.8284L16.4182 20.3231V16.0016L15.4531 15.2945C14.4477 14.5677 13 15.2748 13 16.4927Z" fill="#252323"/>
</g>
<defs>
<clipPath id="clip0_512_865">
<rect width="15" height="11" fill="white" transform="translate(13 15)"/>
</clipPath>
</defs>
</svg>
