<svg width="40" height="40" viewBox="0 0 40 40" fill="none" xmlns="http://www.w3.org/2000/svg">
<rect x="0.625" y="0.625" width="38.75" height="38.75" rx="19.375" stroke="#DAD7C4" stroke-width="1.25"/>
<g clip-path="url(#clip0_1231_2758)">
<path d="M14.0255 25.9996H16.4182V20.3424L13 17.8281V24.9978C13 25.5478 13.4625 25.9996 14.0255 25.9996Z" fill="#252323"/>
<path d="M24.6016 25.9996H26.9943C27.5573 25.9996 28.0198 25.5478 28.0198 24.9978V17.8281L24.6016 20.3228" fill="#252323"/>
<path d="M24.6016 16.0008V20.3419L28.0198 17.8473V16.4919C28.0198 15.2544 26.5721 14.5473 25.5667 15.2937" fill="#252323"/>
<path d="M16.4219 20.3411V16L20.5238 19.0054L24.6055 16V20.3411L20.5036 23.3268" fill="#252323"/>
<path d="M13 16.4917V17.8274L16.4182 20.3221V16.0007L15.4531 15.2935C14.4477 14.5667 13 15.2739 13 16.4917Z" fill="#252323"/>
</g>
<defs>
<clipPath id="clip0_1231_2758">
<rect width="15" height="11" fill="white" transform="translate(13 15)"/>
</clipPath>
</defs>
</svg>
