<svg width="40" height="40" viewBox="0 0 40 40" fill="none" xmlns="http://www.w3.org/2000/svg">
<rect x="0.625" y="0.625" width="38.75" height="38.75" rx="19.375" stroke="#DAD7C4" stroke-width="1.25"/>
<path fill-rule="evenodd" clip-rule="evenodd" d="M19.9979 13.8521C21.9993 13.8521 22.2371 13.8596 23.0279 13.895C23.7586 13.9293 24.1561 14.0514 24.4207 14.1543C24.77 14.2904 25.0196 14.4521 25.2821 14.7146C25.5446 14.9771 25.7064 15.2268 25.8425 15.5771C25.9454 15.8407 26.0675 16.2382 26.1007 16.97C26.1371 17.7596 26.1436 17.9964 26.1436 19.9989C26.1436 22.0004 26.1371 22.2382 26.1007 23.0289C26.0675 23.7596 25.9454 24.1571 25.8436 24.4218C25.7064 24.7711 25.5436 25.0207 25.2821 25.2832C25.0401 25.5321 24.7454 25.7236 24.4196 25.8436C24.155 25.9464 23.7586 26.0686 23.0268 26.1018C22.2371 26.1382 22.0004 26.1446 19.9979 26.1446C17.9954 26.1446 17.7586 26.1382 16.9679 26.1018C16.2371 26.0686 15.8407 25.9464 15.575 25.8446C15.2495 25.7242 14.9552 25.5324 14.7136 25.2832C14.4647 25.0412 14.2732 24.7465 14.1532 24.4207C14.0504 24.1561 13.9282 23.7596 13.895 23.0279C13.8586 22.2382 13.8521 22.0004 13.8521 19.9989C13.8521 17.9964 13.8586 17.7596 13.895 16.9689C13.9282 16.2382 14.0504 15.8418 14.1521 15.5761C14.2893 15.2268 14.4521 14.9771 14.7136 14.7146C14.9761 14.4521 15.2257 14.2904 15.5761 14.1543C15.8396 14.0514 16.2371 13.9293 16.9689 13.8961C17.7586 13.8596 17.9954 13.8532 19.9979 13.8532M19.9979 12.5C17.9621 12.5 17.7061 12.5086 16.9068 12.545C16.1086 12.5825 15.5621 12.71 15.0864 12.8954C14.5859 13.0835 14.1325 13.3786 13.7579 13.76C13.3768 14.1348 13.0821 14.5882 12.8943 15.0886C12.7089 15.5632 12.5814 16.1096 12.545 16.9068C12.5086 17.7061 12.5 17.9621 12.5 19.9989C12.5 22.0346 12.5086 22.2907 12.545 23.09C12.5814 23.8882 12.7089 24.4336 12.8943 24.9104C13.085 25.4032 13.3421 25.8211 13.7589 26.2389C14.1757 26.6546 14.5936 26.9118 15.0875 27.1025C15.5632 27.2879 16.1086 27.4154 16.9068 27.4518C17.7061 27.4882 17.9611 27.4968 19.9979 27.4968C22.0336 27.4968 22.2896 27.4882 23.0889 27.4518C23.8871 27.4154 24.4325 27.2879 24.9093 27.1025C25.4098 26.9144 25.8632 26.6193 26.2379 26.2379C26.6189 25.8631 26.9136 25.4097 27.1014 24.9093C27.2868 24.4336 27.4143 23.8882 27.4507 23.09C27.4871 22.2907 27.4957 22.0346 27.4957 19.9989C27.4957 17.9632 27.4871 17.7071 27.4507 16.9079C27.4143 16.1096 27.2868 15.5643 27.1014 15.0875C26.9133 14.587 26.6182 14.1336 26.2368 13.7589C25.862 13.3779 25.4086 13.0832 24.9082 12.8954C24.4336 12.71 23.8871 12.5825 23.09 12.5461C22.2907 12.5096 22.0336 12.5011 19.9979 12.5011" fill="black"/>
<path fill-rule="evenodd" clip-rule="evenodd" d="M19.9981 16.1498C18.9771 16.1498 17.9979 16.5554 17.276 17.2773C16.554 17.9993 16.1484 18.9785 16.1484 19.9994C16.1484 21.0204 16.554 21.9996 17.276 22.7216C17.9979 23.4435 18.9771 23.8491 19.9981 23.8491C21.0191 23.8491 21.9982 23.4435 22.7202 22.7216C23.4421 21.9996 23.8477 21.0204 23.8477 19.9994C23.8477 18.9785 23.4421 17.9993 22.7202 17.2773C21.9982 16.5554 21.0191 16.1498 19.9981 16.1498V16.1498ZM19.9981 22.4991C19.3351 22.4991 18.6993 22.2357 18.2306 21.767C17.7618 21.2982 17.4984 20.6624 17.4984 19.9994C17.4984 19.3365 17.7618 18.7007 18.2306 18.2319C18.6993 17.7632 19.3351 17.4998 19.9981 17.4998C20.661 17.4998 21.2968 17.7632 21.7656 18.2319C22.2344 18.7007 22.4977 19.3365 22.4977 19.9994C22.4977 20.6624 22.2344 21.2982 21.7656 21.767C21.2968 22.2357 20.661 22.4991 19.9981 22.4991ZM24.8999 15.9977C24.8999 16.2364 24.805 16.4653 24.6363 16.6341C24.4675 16.8028 24.2386 16.8977 23.9999 16.8977C23.7612 16.8977 23.5323 16.8028 23.3635 16.6341C23.1947 16.4653 23.0999 16.2364 23.0999 15.9977C23.0999 15.759 23.1947 15.53 23.3635 15.3613C23.5323 15.1925 23.7612 15.0977 23.9999 15.0977C24.2386 15.0977 24.4675 15.1925 24.6363 15.3613C24.805 15.53 24.8999 15.759 24.8999 15.9977" fill="black"/>
</svg>
