<svg width="40" height="40" viewBox="0 0 40 40" fill="none" xmlns="http://www.w3.org/2000/svg">
<rect x="0.625" y="0.625" width="38.75" height="38.75" rx="19.375" stroke="#DAD7C4" stroke-width="1.25"/>
<path d="M29.1138 26.4713C29.1524 26.4717 29.1907 26.4646 29.2263 26.4505C29.2619 26.4364 29.294 26.4156 29.3206 26.3894C29.3473 26.3632 29.3679 26.3321 29.3812 26.298C29.3945 26.264 29.4002 26.2278 29.398 26.1916C29.398 25.9932 29.2705 25.8984 29.0088 25.8984H28.5859V26.9371H28.745V26.4844H28.9404L28.9449 26.4899L29.2482 26.9371H29.4182L29.0919 26.4742L29.1138 26.4713ZM28.9298 26.3673H28.7454V26.0162H28.9792C29.0999 26.0162 29.2376 26.0347 29.2376 26.183C29.2376 26.3536 29.0983 26.3673 28.9289 26.3673" fill="black"/>
<path d="M24.9684 25.1689H22.7132V21.8549C22.7132 21.0646 22.6982 20.0473 21.5403 20.0473C20.3657 20.0473 20.186 20.9083 20.186 21.7973V25.1686H17.9308V18.3537H20.0958V19.2851H20.1261C20.3428 18.9375 20.6559 18.6515 21.032 18.4576C21.4082 18.2638 21.8333 18.1693 22.2622 18.1842C24.5479 18.1842 24.9693 19.595 24.9693 21.4303L24.9684 25.1689ZM15.3863 17.4222C15.1274 17.4222 14.8744 17.3503 14.6591 17.2154C14.4439 17.0805 14.2761 16.8887 14.177 16.6643C14.078 16.4399 14.052 16.193 14.1024 15.9548C14.1529 15.7166 14.2775 15.4977 14.4605 15.326C14.6435 15.1542 14.8766 15.0372 15.1305 14.9898C15.3843 14.9423 15.6475 14.9666 15.8866 15.0595C16.1258 15.1524 16.3302 15.3098 16.474 15.5117C16.6179 15.7136 16.6947 15.9511 16.6947 16.1939C16.6948 16.3552 16.6609 16.5149 16.5952 16.6639C16.5295 16.8129 16.4331 16.9483 16.3116 17.0624C16.1901 17.1764 16.0458 17.2669 15.8871 17.3286C15.7283 17.3904 15.5581 17.4222 15.3863 17.4222ZM16.5139 25.1689H14.2563V18.3537H16.5139V25.1689ZM26.0927 13.001H13.1231C12.8287 12.9979 12.5451 13.1045 12.3345 13.2976C12.1239 13.4906 12.0036 13.7542 12 14.0304V26.251C12.0035 26.5273 12.1237 26.7911 12.3343 26.9843C12.5449 27.1776 12.8286 27.2844 13.1231 27.2815H26.0927C26.3878 27.285 26.6723 27.1784 26.8837 26.9852C27.0951 26.7919 27.2162 26.5279 27.2203 26.251V14.0295C27.2161 13.7527 27.0949 13.4889 26.8835 13.2958C26.6721 13.1028 26.3876 12.9964 26.0927 13.0001" fill="black"/>
<path d="M28.9497 25.4336C28.6754 25.4361 28.4132 25.5404 28.2206 25.7238C28.028 25.9071 27.9206 26.1546 27.9219 26.4121C27.9232 26.6696 28.0331 26.9161 28.2276 27.0977C28.4221 27.2793 28.6853 27.3813 28.9597 27.3813C29.2341 27.3813 29.4973 27.2793 29.6918 27.0977C29.8863 26.9161 29.9962 26.6696 29.9976 26.4121C29.9989 26.1546 29.8915 25.9071 29.6989 25.7238C29.5063 25.5404 29.2441 25.4361 28.9697 25.4336H28.9497ZM28.9497 27.2698C28.7698 27.2726 28.593 27.2253 28.4417 27.1338C28.2904 27.0423 28.1714 26.9108 28.0997 26.7558C28.0281 26.6009 28.007 26.4295 28.0392 26.2633C28.0714 26.0971 28.1553 25.9437 28.2805 25.8223C28.4056 25.7009 28.5663 25.617 28.7422 25.5813C28.9181 25.5456 29.1014 25.5597 29.2688 25.6217C29.4362 25.6837 29.5803 25.7909 29.6828 25.9298C29.7852 26.0686 29.8415 26.2329 29.8445 26.4017C29.8445 26.4066 29.8445 26.4112 29.8445 26.4161C29.8496 26.6376 29.7606 26.8519 29.5973 27.012C29.4339 27.172 29.2095 27.2646 28.9735 27.2694H28.95" fill="black"/>
</svg>
