<svg width="119" height="73" viewBox="0 0 119 73" fill="none" xmlns="http://www.w3.org/2000/svg">
<mask id="mask0_1107_12594" style="mask-type:luminance" maskUnits="userSpaceOnUse" x="0" y="0" width="119" height="73">
<path d="M118.947 0H0V72.0842H118.947V0Z" fill="white"/>
</mask>
<g mask="url(#mask0_1107_12594)">
<path d="M17.4926 35.4687C17.5533 35.4006 17.6306 35.3841 17.6545 35.3804H26.8122C26.9023 35.4135 27.0274 35.4779 27.1064 35.6066C27.1763 35.7207 27.1727 35.8255 27.18 36.0021C27.1874 36.1474 27.2021 36.3534 27.2407 36.6054C27.2812 36.6477 27.5221 36.8886 27.9065 36.8831C28.278 36.8794 28.5098 36.6477 28.5521 36.6054C28.6128 36.4325 28.7967 35.8457 28.5521 35.1763C28.2302 34.2934 27.4228 33.9697 27.2977 33.9219H17.4577C17.2885 33.9531 16.8121 34.0635 16.4038 34.4865C16.0267 34.8783 15.9219 35.316 15.8906 35.4889C15.8906 35.4963 15.8943 36.861 15.8943 36.8684C15.8943 36.9162 15.9053 40.5524 15.9053 40.6002C16.0488 40.9092 16.3633 41.1042 16.6999 41.0931C17.0163 41.0821 17.3013 40.8908 17.4356 40.6002V38.1614C19.1664 38.0584 20.612 38.0878 21.6953 38.1448C22.6407 38.1945 23.518 38.2791 24.5499 38.6157C25.5559 38.9431 26.0562 39.298 26.2622 39.4562C26.8968 39.9418 27.2812 40.4899 27.4964 40.854C27.7704 41.0784 28.1659 41.0674 28.416 40.8375C28.6459 40.626 28.7048 40.2747 28.5521 39.9878C28.2928 39.5537 27.8477 38.9191 27.1285 38.3287C26.6485 37.9351 26.1206 37.5986 25.2801 37.2748C24.2629 36.8812 23.4095 36.8022 21.7781 36.7433C20.5918 36.701 19.1222 36.6752 17.4264 36.7047C17.4264 36.4987 17.4264 36.2945 17.4264 36.0867C17.4264 35.9267 17.4264 35.7667 17.4264 35.6085C17.4301 35.5827 17.4448 35.5239 17.4926 35.4687Z" fill="white"/>
<path d="M42.7829 33.9023H30.7928C30.3918 33.9115 30.0681 34.2408 30.0626 34.6325C30.057 35.0372 30.3955 35.3811 30.8093 35.3793L42.6541 35.3443C43.1231 35.3406 43.4708 34.9507 43.4395 34.559C43.4156 34.2426 43.1452 33.9575 42.7829 33.9023Z" fill="white"/>
<path d="M42.8617 39.474H31.7857C31.7894 39.0032 31.7931 38.5323 31.7968 38.0615H42.4148C42.6962 37.9824 42.9132 37.769 42.9703 37.506C43.0475 37.1584 42.836 36.774 42.4571 36.625H30.7631C30.7337 36.625 30.5773 36.6324 30.4578 36.7611C30.3511 36.877 30.3438 37.0112 30.3438 37.0444V39.5053C30.364 39.6414 30.4541 40.1141 30.8735 40.4856C31.2045 40.778 31.565 40.8535 31.714 40.8755L42.847 40.9693C43.1652 40.8535 43.3767 40.55 43.3749 40.2134C43.3731 39.8878 43.1689 39.5936 42.8617 39.474Z" fill="white"/>
<path d="M56.9993 33.7921C56.6903 33.7847 56.4052 33.9723 56.2838 34.2611C56.2727 34.2887 56.2672 34.3181 56.2672 34.3476V38.8593C56.2672 38.9641 56.1973 39.0561 56.0962 39.08C56.041 39.0928 55.9803 39.102 55.9123 39.1057C55.7412 39.1167 55.5996 39.0873 55.5058 39.0579C55.4874 39.0524 55.469 39.0432 55.4524 39.0321C54.2017 38.2449 52.9529 37.4577 51.7022 36.6705C50.2657 35.7656 48.8293 34.8607 47.3928 33.9558C47.3854 33.9521 47.3799 33.9484 47.3744 33.9448C47.2328 33.873 46.8907 33.7314 46.4621 33.7921C46.1421 33.8381 45.8313 34.0367 45.5664 34.2905C45.2961 34.5517 45.125 34.7908 45.125 35.0097V40.4226C45.125 40.452 45.1287 40.4815 45.1397 40.5072C45.2574 40.8052 45.5407 41.0093 45.857 41.0204C46.1936 41.0314 46.5063 40.8254 46.6314 40.5072C46.6424 40.4815 46.6461 40.452 46.6461 40.4226V36.0102C46.6461 35.9679 46.6571 35.9256 46.681 35.8888C46.716 35.8373 46.7711 35.773 46.8557 35.727C47.0268 35.635 47.2438 35.6553 47.4241 35.773L55.7007 40.8898C55.7155 40.899 55.7283 40.9063 55.7449 40.91C55.9067 40.9652 56.2801 41.0664 56.6976 40.9247C56.9827 40.8291 57.1629 40.6636 57.2549 40.5771C57.5216 40.327 57.6467 40.0493 57.7074 39.8819C57.7166 39.858 57.7202 39.8341 57.7202 39.8083V34.4138C57.7202 34.3917 57.7184 34.3715 57.7129 34.3494C57.6228 34.0257 57.3322 33.7958 57.0011 33.7884L56.9993 33.7921Z" fill="white"/>
<path d="M72.1773 39.4712H62.3225C62.157 39.4712 61.9952 39.4307 61.8535 39.3461C61.7653 39.2946 61.6696 39.2266 61.574 39.142C61.311 38.9029 61.1951 38.6454 61.1252 38.4835C61.0884 38.3989 60.6838 37.4278 61.1252 36.4346C61.2889 36.0649 61.5004 35.8497 61.5445 35.8074C61.6696 35.6823 61.7984 35.5885 61.9142 35.5186C62.0595 35.4322 62.2251 35.388 62.3943 35.388H72.0872C72.5396 35.388 72.8946 35.0128 72.8799 34.5953C72.8652 34.2183 72.5525 33.8909 72.1479 33.8633L61.9768 33.9074C61.8425 33.9074 61.7082 33.9369 61.5868 33.9939C61.2613 34.1447 60.7996 34.4169 60.3803 34.8951C59.9812 35.3512 59.7789 35.8147 59.6759 36.1164C59.6648 36.1495 59.6556 36.1826 59.6483 36.2157C59.5379 36.7252 59.4423 37.54 59.6722 38.478C59.7789 38.9157 59.9554 39.5944 60.5293 40.2326C60.7647 40.4938 61.0093 40.6851 61.2208 40.823C61.3717 40.9224 61.5501 40.972 61.7303 40.972H72.1736C72.5893 40.972 72.9296 40.6299 72.9277 40.2179C72.9277 39.8114 72.5911 39.473 72.1791 39.4693L72.1773 39.4712Z" fill="white"/>
<path d="M86.8608 34.9871C86.3513 34.3433 85.726 34.0527 85.3655 33.924C85.2515 33.8835 85.1301 33.8633 85.0087 33.8633H76.9675C76.8185 33.8633 76.6713 33.8927 76.5352 33.9516C76.1655 34.1116 75.5549 34.4574 75.0804 35.1434C74.4587 36.0428 74.4661 36.9606 74.4808 37.2494C74.4569 37.5326 74.3943 38.6564 75.1742 39.6772C75.6211 40.2621 76.1619 40.5747 76.5223 40.7347C76.664 40.7973 76.8166 40.8304 76.9711 40.8304H85.1503C85.3453 40.8304 85.5384 40.7807 85.7058 40.6796C86.1086 40.435 86.7394 39.9549 87.1643 39.1236C87.6002 38.2683 87.5984 37.4737 87.5745 37.1133C87.58 36.8392 87.5653 35.8736 86.8627 34.9871H86.8608ZM85.4795 38.4265C85.3784 38.5883 85.2625 38.7392 85.1374 38.8734C84.8119 39.2247 84.3521 39.4215 83.872 39.4215H78.2237C77.9404 39.4215 77.6498 39.4197 77.3868 39.3112C76.7192 39.0371 76.2207 38.1065 76.2097 37.4075C76.1986 36.716 76.5978 35.8699 77.236 35.5499C77.5891 35.3733 78.0011 35.3678 78.3966 35.3678C80.177 35.3641 81.9574 35.3623 83.7378 35.3586C84.0136 35.3586 84.3208 35.342 84.5691 35.4726C84.9167 35.6547 85.2331 35.9453 85.4593 36.2672C85.6855 36.5891 85.818 36.9404 85.8216 37.3156C85.8253 37.7037 85.6874 38.0899 85.4777 38.4265H85.4795Z" fill="white"/>
<path d="M102.082 33.9395C101.534 33.774 101.074 34.0186 100.988 34.0665C99.4317 35.7843 97.8775 37.5022 96.3215 39.2219H95.9812C94.3811 37.5004 92.7809 35.7751 91.1789 34.0517C91.0906 34.0058 90.697 33.8071 90.2115 33.9414C89.6339 34.0996 89.3948 34.5998 89.3617 34.6716C89.3213 36.6083 89.2827 38.5451 89.2422 40.48C89.3893 40.7853 89.7002 40.9784 90.0349 40.971C90.3605 40.9655 90.6547 40.7742 90.7964 40.48V36.2C90.7964 36.1062 90.9104 36.0621 90.9748 36.1301L94.8777 40.2813C95.2106 40.6345 95.6741 40.8368 96.1615 40.8368C96.6268 40.8368 97.0719 40.6418 97.3883 40.3015L101.265 36.1209C101.326 36.0565 101.435 36.097 101.436 36.1853L101.527 40.4652C101.65 40.7724 101.948 40.9729 102.273 40.9729C102.615 40.9729 102.924 40.7485 103.035 40.4174V34.9419C103.022 34.8923 102.807 34.1603 102.082 33.9414V33.9395Z" fill="white"/>
<path d="M60.7072 30.4213L61.7243 30.9069C63.7328 16.4541 75.9032 5.59692 90.0231 5.26033C103.246 4.94582 115.302 13.9269 118.942 27.0592C117.459 11.6352 104.5 -0.0275399 89.8245 4.88445e-05C73.994 0.0294771 60.4332 13.6565 60.7072 30.4213Z" fill="#087B37"/>
<path d="M58.3302 43.1834L57.3407 42.6445C54.5837 56.9742 41.8634 67.1821 27.7452 66.783C14.5228 66.4077 2.95017 56.8123 0 43.5071C0.676847 58.99 13.0109 71.3112 27.668 72.0469C43.4801 72.8415 57.7306 59.9391 58.3302 43.1834Z" fill="#7ADC51"/>
</g>
</svg>
