<svg width="201" height="193" viewBox="0 0 201 193" fill="none" xmlns="http://www.w3.org/2000/svg">
<g opacity="0.8">
<path d="M158.549 158.266C154.872 154.919 152.658 154.274 152.646 156.439C152.639 157.97 157.364 162.643 165.352 169.023C168.506 171.469 171.028 173.7 171.028 173.912C171.021 175.02 155.987 182.173 153.664 182.16C151.974 182.151 150.694 184.415 151.797 185.477C152.585 186.274 154.964 185.758 160.414 183.517C175.548 177.422 177.461 175.161 171.948 169.798C170.478 168.312 167.588 165.813 165.538 164.218C163.541 162.623 160.388 159.966 158.549 158.266ZM65.7942 52.3074C66.9908 46.0303 66.9384 45.8713 65.1951 46.073C63.9271 46.2245 63.6612 46.5404 62.8518 49.6516C61.7727 53.8176 61.6154 63.0575 62.5886 68.3961C65.7104 86.0504 75.2217 103.476 89.5551 117.759C95.0155 123.175 99.0635 126.312 104.328 129.087L108.381 131.274L110.468 135.721C114.223 143.927 118.837 149.602 126.931 156.247C136.286 163.85 148.493 171.203 155.924 173.673C162.669 175.98 169.425 176.175 169.437 174.116C169.444 172.902 168.285 172.367 164.962 171.927C156.309 170.824 144.621 165.003 132.319 155.642C123.855 149.207 118.189 142.892 114.795 136.167C113.281 133.043 113.334 132.885 116.182 133.482C122.774 134.785 129.656 131.443 132.805 125.44C137.502 116.383 135.529 101.005 128.456 91.2501C122.431 82.9798 114.192 83.358 109.708 92.1521C105.865 99.6826 104.519 113.774 106.679 124.189C106.883 125.299 106.827 125.932 106.457 125.93C105.19 125.923 97.3037 120.019 92.9979 115.824C74.0941 97.4495 62.4732 70.2435 65.7942 52.3074ZM118.807 89.0326C126.462 89.0744 134.116 108.179 130.991 119.463C129.751 124.103 127.25 127.416 123.756 129.193C122.009 130.081 117.257 130.108 114.147 129.193C111.828 128.547 111.565 128.281 111.048 126.272C110.791 125.109 110.377 123.628 110.221 123.046C109.082 119.132 109.196 108.149 110.5 101.714C112.021 94.0126 115.322 89.0137 118.807 89.0326Z" fill="url(#paint0_linear_1374_32163)"/>
</g>
<path d="M5.865 7.532C7.107 7.532 8.64033 8.34467 10.465 9.97C12.949 12.8527 14.191 15.8427 14.191 18.94C14.191 22.022 12.6807 24.1303 9.66 25.265L9.016 25.357C7.39067 25.357 6.118 24.1763 5.198 21.815H5.152C4.61533 23.7317 3.89467 24.69 2.99 24.69H2.852C1.656 24.69 0.835667 22.436 0.391 17.928V16.594C0.421667 14.9993 0.874 14.087 1.748 13.857C1.99333 13.857 2.21567 14.0947 2.415 14.57C1.97033 15.1833 1.748 15.904 1.748 16.732V16.939C1.748 19.7757 2.162 21.884 2.99 23.264C3.60333 22.8193 4.05567 20.9947 4.347 17.79C4.347 15.1987 4.53867 13.903 4.922 13.903L5.152 13.857C5.658 13.857 5.911 14.3553 5.911 15.352L5.773 17.882C5.773 19.584 6.302 21.355 7.36 23.195C7.88133 23.7163 8.41033 23.977 8.947 23.977C9.821 23.977 10.7563 23.4327 11.753 22.344C12.4583 21.4087 12.811 20.228 12.811 18.802C12.811 15.6433 11.4233 12.7453 8.648 10.108C7.92733 9.52533 6.82333 9.05 5.336 8.682L5.152 8.245C5.25933 7.76967 5.497 7.532 5.865 7.532ZM16.2775 11.304C16.7069 11.304 16.9215 11.8253 16.9215 12.868L17.1975 16.824H17.2895L18.4395 16.387C19.7275 16.387 20.5095 17.7057 20.7855 20.343C20.8929 21.0943 20.9465 22.1983 20.9465 23.655V25.518C20.9465 26.1007 20.7319 26.392 20.3025 26.392H20.2105C19.7965 26.3307 19.5895 26.1083 19.5895 25.725V23.563C19.5895 20.0977 19.2522 18.181 18.5775 17.813H18.4395C17.9795 17.813 17.6422 18.5183 17.4275 19.929V21.217C17.4275 23.517 17.2359 24.667 16.8525 24.667L16.4155 24.713C15.9862 24.713 15.7715 24.0767 15.7715 22.804C15.8175 21.4547 15.9095 20.3507 16.0475 19.492L15.5645 11.925C15.5645 11.5263 15.8022 11.3193 16.2775 11.304ZM22.9934 17.1C23.53 17.1 23.898 18.2807 24.0974 20.642C24.358 21.7307 24.5497 22.275 24.6724 22.275H24.8104C25.1937 21.309 25.3854 20.3507 25.3854 19.4L25.2474 17.813C25.416 17.399 25.6537 17.192 25.9604 17.192C26.5277 17.192 26.8114 18.1963 26.8114 20.205C27.1487 22.2903 27.3174 24.23 27.3174 26.024V27.105C27.3174 30.4017 26.382 32.625 24.5114 33.775L24.0054 33.867C23.1314 33.867 22.3187 33.0543 21.5674 31.429L21.3604 30.049V29.98C21.3604 28.968 21.644 28.462 22.2114 28.462L22.7864 28.83L22.7174 30.279C22.7174 30.9843 23.0777 31.6973 23.7984 32.418H24.0974C24.9407 32.418 25.5617 30.808 25.9604 27.588L26.0064 26.254C25.991 24.7053 25.9297 23.7163 25.8224 23.287C25.209 23.8237 24.726 24.092 24.3734 24.092C23.5914 24.092 22.8937 21.999 22.2804 17.813L22.2114 17.767C22.2114 17.4143 22.472 17.192 22.9934 17.1ZM38.5552 11.258C38.9232 11.258 39.1609 11.4497 39.2682 11.833L39.1302 13.19V13.627C39.5135 16.801 39.7512 19.2697 39.8432 21.033C40.0119 22.6737 40.1882 23.494 40.3722 23.494C40.3722 23.816 40.1039 24.023 39.5672 24.115C38.8005 24.115 38.4172 22.5663 38.4172 19.469L37.7732 13.489V13.282C37.7732 11.9327 38.0339 11.258 38.5552 11.258ZM44.4836 10.039C44.913 10.131 45.1276 10.3457 45.1276 10.683L44.9896 11.695V11.994C44.9896 12.6687 45.0663 13.3817 45.2196 14.133H45.2656C47.0443 13.5963 48.1483 13.328 48.5776 13.328C49.0223 13.4507 49.2446 13.673 49.2446 13.995C49.2446 14.5163 48.7156 14.777 47.6576 14.777L45.2656 15.628C45.2656 17.698 45.488 20.5117 45.9326 24.069C45.8406 24.483 45.6183 24.69 45.2656 24.69H45.2196C44.683 24.69 44.4146 24 44.4146 22.62C44.2153 21.5927 44.0466 19.3617 43.9086 15.927H43.4946C42.0533 15.835 41.3326 15.4977 41.3326 14.915C41.3326 14.7463 41.4936 14.5393 41.8156 14.294H42.0456L43.1036 14.57H43.8396L43.6326 11.695C43.6326 10.591 43.9163 10.039 44.4836 10.039ZM65.6993 7.21H65.7683C66.1517 7.40933 66.3433 7.63167 66.3433 7.877L65.7683 12.247C65.7683 13.8417 66.2437 17.146 67.1943 22.16L68.3443 25.035C68.3443 25.2343 68.1833 25.4567 67.8613 25.702H67.4243C67.1177 25.61 66.6577 24.667 66.0443 22.873C65.6457 21.4317 65.247 19.2083 64.8483 16.203H64.7103C63.821 18.8403 63.1923 20.205 62.8243 20.297L62.4563 20.389C62.1343 20.389 61.7357 19.7603 61.2603 18.503H61.0993C60.9153 22.2903 60.555 24.184 60.0183 24.184H59.9493C59.4587 24.184 59.1903 23.8007 59.1443 23.034C59.5277 21.562 59.7193 20.0287 59.7193 18.434L59.0983 12.339V11.902C59.0983 11.3193 59.3053 11.028 59.7193 11.028C60.3173 11.028 60.8463 12.201 61.3063 14.547C61.981 16.6783 62.395 17.8283 62.5483 17.997C62.901 17.445 63.2537 16.4637 63.6063 15.053C63.8823 14.3323 64.1507 13.2053 64.4113 11.672L64.3193 11.603L64.4113 11.235V11.097C64.5493 8.50567 64.9787 7.21 65.6993 7.21ZM73.6014 15.122C74.2761 15.122 74.6134 15.3903 74.6134 15.927L74.4064 16.364L74.2684 20.573C74.2684 22.4743 74.6518 23.655 75.4184 24.115L75.4644 24.46C75.4184 24.9047 75.2114 25.127 74.8434 25.127H74.7054C73.5554 24.345 72.9804 23.149 72.9804 21.539H72.8194C72.2061 23.2563 71.4624 24.115 70.5884 24.115C69.7758 23.885 69.3694 23.2793 69.3694 22.298C69.3694 20.136 70.2358 17.9817 71.9684 15.835C72.5511 15.3597 73.0954 15.122 73.6014 15.122ZM70.8184 21.378L70.7264 22.022V22.459H70.9564C72.1064 19.5917 72.6814 17.8437 72.6814 17.215H72.5894C71.7001 18.2117 71.1098 19.5993 70.8184 21.378ZM78.9603 10.039C79.3896 10.131 79.6043 10.3457 79.6043 10.683L79.4663 11.695V11.994C79.4663 12.6687 79.5429 13.3817 79.6963 14.133H79.7423C81.5209 13.5963 82.6249 13.328 83.0543 13.328C83.4989 13.4507 83.7213 13.673 83.7213 13.995C83.7213 14.5163 83.1923 14.777 82.1343 14.777L79.7423 15.628C79.7423 17.698 79.9646 20.5117 80.4093 24.069C80.3173 24.483 80.0949 24.69 79.7423 24.69H79.6963C79.1596 24.69 78.8913 24 78.8913 22.62C78.6919 21.5927 78.5233 19.3617 78.3853 15.927H77.9713C76.5299 15.835 75.8093 15.4977 75.8093 14.915C75.8093 14.7463 75.9703 14.5393 76.2923 14.294H76.5223L77.5803 14.57H78.3163L78.1093 11.695C78.1093 10.591 78.3929 10.039 78.9603 10.039ZM87.366 10.039C87.7954 10.131 88.01 10.3457 88.01 10.683L87.872 11.695V11.994C87.872 12.6687 87.9487 13.3817 88.102 14.133H88.148C89.9267 13.5963 91.0307 13.328 91.46 13.328C91.9047 13.4507 92.127 13.673 92.127 13.995C92.127 14.5163 91.598 14.777 90.54 14.777L88.148 15.628C88.148 17.698 88.3704 20.5117 88.815 24.069C88.723 24.483 88.5007 24.69 88.148 24.69H88.102C87.5654 24.69 87.297 24 87.297 22.62C87.0977 21.5927 86.929 19.3617 86.791 15.927H86.377C84.9357 15.835 84.215 15.4977 84.215 14.915C84.215 14.7463 84.376 14.5393 84.698 14.294H84.928L85.986 14.57H86.722L86.515 11.695C86.515 10.591 86.7987 10.039 87.366 10.039ZM95.1278 15.743C95.7412 15.7583 96.7762 16.8317 98.2328 18.963L98.2788 19.354C98.2788 19.7833 97.2285 20.113 95.1278 20.343L95.0588 20.412V20.504C95.3808 21.884 95.7182 22.574 96.0708 22.574H96.3468C96.8375 22.574 97.5812 22.045 98.5778 20.987H98.7158C99.0225 20.987 99.2602 21.2093 99.4288 21.654C99.4288 22.022 98.7848 22.6583 97.4968 23.563C97.1595 23.7623 96.7532 23.908 96.2778 24C95.0358 24 94.1695 22.8347 93.6788 20.504C92.9735 20.3967 92.6208 20.1053 92.6208 19.63C92.6208 19.2927 92.8815 19.0703 93.4028 18.963V19.055L93.6328 18.963V18.388C93.6328 16.6247 94.1312 15.743 95.1278 15.743ZM95.2658 17.399H95.0588L94.9668 18.25V18.963H95.0588C95.9175 18.9323 96.3468 18.8403 96.3468 18.687C95.9482 18.089 95.5878 17.6597 95.2658 17.399ZM103.579 14.938C104.545 14.938 105.12 15.6127 105.304 16.962V17.169C105.304 18.6563 104.537 20.021 103.004 21.263C103.893 22.137 105.449 22.574 107.673 22.574C108.01 22.6813 108.179 22.919 108.179 23.287C108.179 23.701 107.91 23.908 107.374 23.908C105.871 23.908 104.292 23.5247 102.636 22.758V23.425C102.636 25.0043 102.298 25.794 101.624 25.794C101.148 25.794 100.911 24.8817 100.911 23.057V21.263L100.842 20.619L101.003 19.883L100.842 17.675V17.583C100.842 17.169 101.056 16.8853 101.486 16.732C102.084 15.536 102.781 14.938 103.579 14.938ZM102.429 19.975C102.873 19.975 103.372 19.1777 103.924 17.583V16.594L103.648 16.295H103.441C102.766 16.755 102.429 17.9817 102.429 19.975ZM113.796 14.685C114.21 14.685 114.494 15.3827 114.647 16.778C114.494 17.1613 114.241 17.353 113.888 17.353C113.643 17.307 113.397 17.0233 113.152 16.502L112.738 16.364C112.017 16.364 111.366 16.8393 110.783 17.79V17.997C110.783 18.227 111.864 18.6103 114.026 19.147C114.931 19.6837 115.383 20.3353 115.383 21.102C115.383 22.3593 114.371 23.4327 112.347 24.322L111.496 24.46C110.208 24.322 109.564 23.678 109.564 22.528V22.459C109.564 22.091 109.802 21.8763 110.277 21.815C110.645 21.815 110.89 22.1983 111.013 22.965L111.197 23.103H111.588C112.462 23.103 113.275 22.505 114.026 21.309V21.01C114.026 20.55 113.022 20.1207 111.013 19.722C109.955 19.2927 109.426 18.6947 109.426 17.928C109.426 16.9313 110.262 15.996 111.933 15.122C112.669 15.03 113.29 14.8843 113.796 14.685Z" fill="#0F3D1C"/>
<defs>
<linearGradient id="paint0_linear_1374_32163" x1="165.017" y1="167.264" x2="72.0236" y2="94.9307" gradientUnits="userSpaceOnUse">
<stop stop-color="#7ADC51"/>
<stop offset="1" stop-color="#087B37"/>
</linearGradient>
</defs>
</svg>
