<svg width="392" height="492" viewBox="0 0 392 492" fill="none" xmlns="http://www.w3.org/2000/svg">
<path d="M211.398 220.84C186.1 234.188 172.545 279.975 182.768 303.345C194.062 329.153 264.326 325.076 272.375 318.76C280.425 312.443 214.461 292.431 223.404 268.642C233.337 242.238 283.502 242.092 282.111 230.83C280.744 219.748 240.641 205.413 211.398 220.84Z" stroke="#5D956D" stroke-width="0.242444" stroke-miterlimit="10"/>
<path d="M203.459 217.608C173.798 229.256 161.037 284.671 174.181 310.735C189.076 340.257 265.398 329.136 276.721 324.435C286.481 320.388 223.005 293.419 230.524 264.682C238.685 233.459 283.919 228.292 280.523 221.06C276.874 213.306 238.266 203.971 203.459 217.608Z" stroke="#5D956D" stroke-width="0.242444" stroke-miterlimit="10"/>
<path d="M195.522 214.379C161.544 224.292 149.555 289.356 165.595 318.115C184.124 351.379 265.863 333.1 281.068 330.113C292.119 327.917 231.606 294.441 237.638 260.703C244.075 224.721 285.356 214.082 278.937 211.337C274.141 206.461 236.018 202.555 195.522 214.379Z" stroke="#5D956D" stroke-width="0.242444" stroke-miterlimit="10"/>
<path d="M187.588 211.125C149.319 219.375 138.102 294.015 157.037 325.482C179.231 362.416 267.426 342.292 285.441 335.773C296.726 331.686 240.267 295.45 244.779 256.735C249.531 215.992 286.307 200.071 277.378 201.589C270.843 199.815 233.767 201.185 187.588 211.125Z" stroke="#5D956D" stroke-width="0.242444" stroke-miterlimit="10"/>
<path d="M179.653 207.914C137.108 214.523 126.661 298.703 148.43 332.894C174.296 373.527 266.923 346.667 289.767 341.47C302.586 338.546 248.902 296.511 251.879 252.797C254.939 207.294 288.066 187.913 275.77 191.871C267.894 194.4 231.53 199.852 179.653 207.914Z" stroke="#5D956D" stroke-width="0.242444" stroke-miterlimit="10"/>
<path d="M171.729 204.678C124.899 209.681 115.231 303.374 139.849 340.274C169.412 384.598 266.548 343.285 294.127 347.178C308.418 349.181 257.596 297.576 259.006 248.855C260.476 198.606 289.247 173.557 274.19 182.162C264.819 187.483 229.304 198.536 171.729 204.678Z" stroke="#5D956D" stroke-width="0.242444" stroke-miterlimit="10"/>
<path d="M163.784 201.453C112.679 204.851 103.797 308.013 131.249 347.665C164.523 395.666 266.886 346.269 298.459 352.824C313.906 356.034 266.269 298.594 266.105 244.866C265.937 189.842 290.164 159.236 272.589 172.393C261.566 180.649 227.066 197.239 163.784 201.453Z" stroke="#5D956D" stroke-width="0.242444" stroke-miterlimit="10"/>
<path d="M155.853 198.219C100.472 200.034 92.4011 312.692 122.67 355.053C159.633 406.732 267.324 349.141 302.813 358.505C319.455 362.892 274.98 299.617 273.233 240.904C271.452 181.134 291.03 145.029 271.009 162.658C258.271 173.865 224.826 195.962 155.853 198.219Z" stroke="#5D956D" stroke-width="0.242444" stroke-miterlimit="10"/>
<path d="M147.912 194.988C88.2543 195.227 80.9545 317.353 114.08 362.445C154.747 417.8 267.823 351.974 307.156 364.196C325.032 369.754 283.688 300.665 280.343 236.952C276.956 172.422 291.871 130.889 269.419 152.926C254.934 167.127 222.598 194.695 147.912 194.988Z" stroke="#5D956D" stroke-width="0.242444" stroke-miterlimit="10"/>
<path d="M139.977 191.76C76.0039 190.452 69.5381 322.003 105.497 369.825C149.852 428.851 268.391 354.722 311.505 369.861C330.647 376.582 292.402 301.687 287.459 232.982C282.475 163.691 292.734 116.761 267.827 143.176C251.596 160.406 220.362 193.438 139.977 191.76Z" stroke="#5D956D" stroke-width="0.242444" stroke-miterlimit="10"/>
<path d="M132.041 188.527C63.8152 185.628 58.1045 326.655 96.9127 377.214C145.003 439.91 269.036 357.465 315.853 375.543C336.285 383.419 301.131 302.718 294.581 229.021C287.999 154.963 293.564 102.67 266.242 133.442C248.248 153.703 218.116 192.191 132.041 188.527Z" stroke="#5D956D" stroke-width="0.242444" stroke-miterlimit="10"/>
<path d="M124.107 185.295C51.5978 180.834 46.7211 331.307 88.331 384.605C140.141 450.963 269.653 360.187 320.204 381.203C341.934 390.25 309.855 303.757 301.699 225.039C293.527 146.22 294.412 88.5731 264.66 123.687C244.911 147.007 215.873 190.945 124.107 185.295Z" stroke="#5D956D" stroke-width="0.242444" stroke-miterlimit="10"/>
<path d="M116.167 182.068C39.3657 176.045 35.3073 335.987 79.7425 391.986C135.273 462.014 270.326 362.9 324.556 386.898C347.607 397.1 318.588 304.773 308.818 221.092C299.048 137.411 295.254 74.5176 263.071 113.945C241.56 140.316 213.623 189.711 116.167 182.068Z" stroke="#5D956D" stroke-width="0.242444" stroke-miterlimit="10"/>
<path d="M108.23 178.834C27.1374 171.256 23.8972 340.601 71.1499 399.374C130.408 473.094 271.035 365.634 328.895 392.579C353.284 403.943 327.316 305.796 315.932 217.13C304.581 128.775 296.108 60.4619 261.478 104.224C238.212 133.633 211.377 188.47 108.23 178.834Z" stroke="#5D956D" stroke-width="0.242444" stroke-miterlimit="10"/>
<path d="M100.297 175.602C14.9128 166.47 12.6169 345.167 62.5926 406.765C125.728 484.009 271.794 368.299 333.271 398.255C358.997 410.789 336.08 306.821 323.074 213.171C310.141 120.048 296.989 46.4021 259.92 94.4844C234.868 126.953 209.119 187.246 100.297 175.602Z" stroke="#5D956D" stroke-width="0.242444" stroke-miterlimit="10"/>
<path d="M92.3597 172.372C2.68342 161.686 1.1979 349.815 53.9831 414.136C120.823 495.079 272.501 370.944 337.594 403.918C364.673 417.615 344.792 307.827 330.164 209.177C315.656 111.279 297.817 32.322 258.31 84.7103C231.52 120.267 206.864 186.009 92.3597 172.372Z" stroke="#5D956D" stroke-width="0.242444" stroke-miterlimit="10"/>
<path d="M84.4239 169.139C-9.58366 156.905 -10.2273 354.473 45.3992 421.532C115.943 506.087 273.25 373.679 341.942 409.606C370.406 424.481 353.719 308.843 337.28 205.237C321.379 102.55 298.672 18.2959 256.725 75.0045C228.173 113.591 204.603 184.783 84.4239 169.139Z" stroke="#5D956D" stroke-width="0.242444" stroke-miterlimit="10"/>
<path d="M76.4888 165.908C-21.8101 152.287 -21.6516 359.135 36.816 428.925C111.064 517.193 274.015 376.374 346.299 415.291C376.084 431.328 362.418 309.869 344.404 201.279C326.882 93.8238 299.527 4.2587 255.133 65.266C224.826 106.919 202.312 183.763 76.4888 165.908Z" stroke="#5D956D" stroke-width="0.242444" stroke-miterlimit="10"/>
<path d="M68.5519 162.68C-34.0389 147.468 -33.0621 363.784 28.2308 436.312C106.175 528.25 274.786 379.056 350.647 420.97C381.793 438.177 371.122 310.876 351.518 197.315C332.382 85.0926 300.388 -9.79103 253.548 55.5295C221.455 100.278 200.058 182.492 68.5519 162.68Z" stroke="#5D956D" stroke-width="0.242444" stroke-miterlimit="10"/>
<path d="M60.6133 159.446C-46.2693 142.65 -44.498 368.442 19.6441 443.693C101.292 539.287 275.571 381.747 354.992 426.643C387.507 445.027 379.865 311.921 358.63 193.375C337.842 76.3852 301.113 -23.8892 251.96 45.8093C218.034 93.5156 197.802 181.215 60.6133 159.446Z" stroke="#5D956D" stroke-width="0.242444" stroke-miterlimit="10"/>
<path d="M52.6847 156.213C-58.4898 137.812 -55.9396 373.108 11.0673 451.083C96.4193 550.368 276.367 384.439 359.348 432.296C393.24 451.857 388.538 312.916 365.761 189.364C343.39 67.6275 302.046 -37.9076 250.383 36.0463C214.742 86.8767 195.572 179.975 52.6847 156.213Z" stroke="#5D956D" stroke-width="0.242444" stroke-miterlimit="10"/>
<path d="M248.785 26.3125C211.437 80.2309 193.289 178.67 44.7437 152.987C-70.7305 133.018 -67.3463 377.753 2.47025 458.472C91.5342 561.435 277.15 387.131 363.691 438C433.674 479.144 358.005 -131.375 248.785 26.3125Z" stroke="#5D956D" stroke-width="0.242444" stroke-miterlimit="10"/>
</svg>
