<svg width="116" height="27" viewBox="0 0 116 27" fill="none" xmlns="http://www.w3.org/2000/svg">
<path d="M5.865 0.532C7.107 0.532 8.64033 1.34467 10.465 2.97C12.949 5.85267 14.191 8.84267 14.191 11.94C14.191 15.022 12.6807 17.1303 9.66 18.265L9.016 18.357C7.39067 18.357 6.118 17.1763 5.198 14.815H5.152C4.61533 16.7317 3.89467 17.69 2.99 17.69H2.852C1.656 17.69 0.835667 15.436 0.391 10.928V9.594C0.421667 7.99933 0.874 7.087 1.748 6.857C1.99333 6.857 2.21567 7.09467 2.415 7.57C1.97033 8.18333 1.748 8.904 1.748 9.732V9.939C1.748 12.7757 2.162 14.884 2.99 16.264C3.60333 15.8193 4.05567 13.9947 4.347 10.79C4.347 8.19867 4.53867 6.903 4.922 6.903L5.152 6.857C5.658 6.857 5.911 7.35533 5.911 8.352L5.773 10.882C5.773 12.584 6.302 14.355 7.36 16.195C7.88133 16.7163 8.41033 16.977 8.947 16.977C9.821 16.977 10.7563 16.4327 11.753 15.344C12.4583 14.4087 12.811 13.228 12.811 11.802C12.811 8.64333 11.4233 5.74533 8.648 3.108C7.92733 2.52533 6.82333 2.05 5.336 1.682L5.152 1.245C5.25933 0.769666 5.497 0.532 5.865 0.532ZM16.2775 4.304C16.7069 4.304 16.9215 4.82533 16.9215 5.868L17.1975 9.824H17.2895L18.4395 9.387C19.7275 9.387 20.5095 10.7057 20.7855 13.343C20.8929 14.0943 20.9465 15.1983 20.9465 16.655V18.518C20.9465 19.1007 20.7319 19.392 20.3025 19.392H20.2105C19.7965 19.3307 19.5895 19.1083 19.5895 18.725V16.563C19.5895 13.0977 19.2522 11.181 18.5775 10.813H18.4395C17.9795 10.813 17.6422 11.5183 17.4275 12.929V14.217C17.4275 16.517 17.2359 17.667 16.8525 17.667L16.4155 17.713C15.9862 17.713 15.7715 17.0767 15.7715 15.804C15.8175 14.4547 15.9095 13.3507 16.0475 12.492L15.5645 4.925C15.5645 4.52633 15.8022 4.31933 16.2775 4.304ZM22.9934 10.1C23.53 10.1 23.898 11.2807 24.0974 13.642C24.358 14.7307 24.5497 15.275 24.6724 15.275H24.8104C25.1937 14.309 25.3854 13.3507 25.3854 12.4L25.2474 10.813C25.416 10.399 25.6537 10.192 25.9604 10.192C26.5277 10.192 26.8114 11.1963 26.8114 13.205C27.1487 15.2903 27.3174 17.23 27.3174 19.024V20.105C27.3174 23.4017 26.382 25.625 24.5114 26.775L24.0054 26.867C23.1314 26.867 22.3187 26.0543 21.5674 24.429L21.3604 23.049V22.98C21.3604 21.968 21.644 21.462 22.2114 21.462L22.7864 21.83L22.7174 23.279C22.7174 23.9843 23.0777 24.6973 23.7984 25.418H24.0974C24.9407 25.418 25.5617 23.808 25.9604 20.588L26.0064 19.254C25.991 17.7053 25.9297 16.7163 25.8224 16.287C25.209 16.8237 24.726 17.092 24.3734 17.092C23.5914 17.092 22.8937 14.999 22.2804 10.813L22.2114 10.767C22.2114 10.4143 22.472 10.192 22.9934 10.1ZM38.5552 4.258C38.9232 4.258 39.1609 4.44967 39.2682 4.833L39.1302 6.19V6.627C39.5135 9.801 39.7512 12.2697 39.8432 14.033C40.0119 15.6737 40.1882 16.494 40.3722 16.494C40.3722 16.816 40.1039 17.023 39.5672 17.115C38.8005 17.115 38.4172 15.5663 38.4172 12.469L37.7732 6.489V6.282C37.7732 4.93267 38.0339 4.258 38.5552 4.258ZM44.4836 3.039C44.913 3.131 45.1276 3.34567 45.1276 3.683L44.9896 4.695V4.994C44.9896 5.66867 45.0663 6.38167 45.2196 7.133H45.2656C47.0443 6.59633 48.1483 6.328 48.5776 6.328C49.0223 6.45067 49.2446 6.673 49.2446 6.995C49.2446 7.51633 48.7156 7.777 47.6576 7.777L45.2656 8.628C45.2656 10.698 45.488 13.5117 45.9326 17.069C45.8406 17.483 45.6183 17.69 45.2656 17.69H45.2196C44.683 17.69 44.4146 17 44.4146 15.62C44.2153 14.5927 44.0466 12.3617 43.9086 8.927H43.4946C42.0533 8.835 41.3326 8.49767 41.3326 7.915C41.3326 7.74633 41.4936 7.53933 41.8156 7.294H42.0456L43.1036 7.57H43.8396L43.6326 4.695C43.6326 3.591 43.9163 3.039 44.4836 3.039ZM65.6993 0.21H65.7683C66.1517 0.409333 66.3433 0.631666 66.3433 0.876999L65.7683 5.247C65.7683 6.84167 66.2437 10.146 67.1943 15.16L68.3443 18.035C68.3443 18.2343 68.1833 18.4567 67.8613 18.702H67.4243C67.1177 18.61 66.6577 17.667 66.0443 15.873C65.6457 14.4317 65.247 12.2083 64.8483 9.203H64.7103C63.821 11.8403 63.1923 13.205 62.8243 13.297L62.4563 13.389C62.1343 13.389 61.7357 12.7603 61.2603 11.503H61.0993C60.9153 15.2903 60.555 17.184 60.0183 17.184H59.9493C59.4587 17.184 59.1903 16.8007 59.1443 16.034C59.5277 14.562 59.7193 13.0287 59.7193 11.434L59.0983 5.339V4.902C59.0983 4.31933 59.3053 4.028 59.7193 4.028C60.3173 4.028 60.8463 5.201 61.3063 7.547C61.981 9.67833 62.395 10.8283 62.5483 10.997C62.901 10.445 63.2537 9.46367 63.6063 8.053C63.8823 7.33233 64.1507 6.20533 64.4113 4.672L64.3193 4.603L64.4113 4.235V4.097C64.5493 1.50567 64.9787 0.21 65.6993 0.21ZM73.6014 8.122C74.2761 8.122 74.6134 8.39033 74.6134 8.927L74.4064 9.364L74.2684 13.573C74.2684 15.4743 74.6518 16.655 75.4184 17.115L75.4644 17.46C75.4184 17.9047 75.2114 18.127 74.8434 18.127H74.7054C73.5554 17.345 72.9804 16.149 72.9804 14.539H72.8194C72.2061 16.2563 71.4624 17.115 70.5884 17.115C69.7758 16.885 69.3694 16.2793 69.3694 15.298C69.3694 13.136 70.2358 10.9817 71.9684 8.835C72.5511 8.35967 73.0954 8.122 73.6014 8.122ZM70.8184 14.378L70.7264 15.022V15.459H70.9564C72.1064 12.5917 72.6814 10.8437 72.6814 10.215H72.5894C71.7001 11.2117 71.1098 12.5993 70.8184 14.378ZM78.9603 3.039C79.3896 3.131 79.6043 3.34567 79.6043 3.683L79.4663 4.695V4.994C79.4663 5.66867 79.5429 6.38167 79.6963 7.133H79.7423C81.5209 6.59633 82.6249 6.328 83.0543 6.328C83.4989 6.45067 83.7213 6.673 83.7213 6.995C83.7213 7.51633 83.1923 7.777 82.1343 7.777L79.7423 8.628C79.7423 10.698 79.9646 13.5117 80.4093 17.069C80.3173 17.483 80.0949 17.69 79.7423 17.69H79.6963C79.1596 17.69 78.8913 17 78.8913 15.62C78.6919 14.5927 78.5233 12.3617 78.3853 8.927H77.9713C76.5299 8.835 75.8093 8.49767 75.8093 7.915C75.8093 7.74633 75.9703 7.53933 76.2923 7.294H76.5223L77.5803 7.57H78.3163L78.1093 4.695C78.1093 3.591 78.3929 3.039 78.9603 3.039ZM87.366 3.039C87.7954 3.131 88.01 3.34567 88.01 3.683L87.872 4.695V4.994C87.872 5.66867 87.9487 6.38167 88.102 7.133H88.148C89.9267 6.59633 91.0307 6.328 91.46 6.328C91.9047 6.45067 92.127 6.673 92.127 6.995C92.127 7.51633 91.598 7.777 90.54 7.777L88.148 8.628C88.148 10.698 88.3704 13.5117 88.815 17.069C88.723 17.483 88.5007 17.69 88.148 17.69H88.102C87.5654 17.69 87.297 17 87.297 15.62C87.0977 14.5927 86.929 12.3617 86.791 8.927H86.377C84.9357 8.835 84.215 8.49767 84.215 7.915C84.215 7.74633 84.376 7.53933 84.698 7.294H84.928L85.986 7.57H86.722L86.515 4.695C86.515 3.591 86.7987 3.039 87.366 3.039ZM95.1278 8.743C95.7412 8.75833 96.7762 9.83167 98.2328 11.963L98.2788 12.354C98.2788 12.7833 97.2285 13.113 95.1278 13.343L95.0588 13.412V13.504C95.3808 14.884 95.7182 15.574 96.0708 15.574H96.3468C96.8375 15.574 97.5812 15.045 98.5778 13.987H98.7158C99.0225 13.987 99.2602 14.2093 99.4288 14.654C99.4288 15.022 98.7848 15.6583 97.4968 16.563C97.1595 16.7623 96.7532 16.908 96.2778 17C95.0358 17 94.1695 15.8347 93.6788 13.504C92.9735 13.3967 92.6208 13.1053 92.6208 12.63C92.6208 12.2927 92.8815 12.0703 93.4028 11.963V12.055L93.6328 11.963V11.388C93.6328 9.62467 94.1312 8.743 95.1278 8.743ZM95.2658 10.399H95.0588L94.9668 11.25V11.963H95.0588C95.9175 11.9323 96.3468 11.8403 96.3468 11.687C95.9482 11.089 95.5878 10.6597 95.2658 10.399ZM103.579 7.938C104.545 7.938 105.12 8.61267 105.304 9.962V10.169C105.304 11.6563 104.537 13.021 103.004 14.263C103.893 15.137 105.449 15.574 107.673 15.574C108.01 15.6813 108.179 15.919 108.179 16.287C108.179 16.701 107.91 16.908 107.374 16.908C105.871 16.908 104.292 16.5247 102.636 15.758V16.425C102.636 18.0043 102.298 18.794 101.624 18.794C101.148 18.794 100.911 17.8817 100.911 16.057V14.263L100.842 13.619L101.003 12.883L100.842 10.675V10.583C100.842 10.169 101.056 9.88533 101.486 9.732C102.084 8.536 102.781 7.938 103.579 7.938ZM102.429 12.975C102.873 12.975 103.372 12.1777 103.924 10.583V9.594L103.648 9.295H103.441C102.766 9.755 102.429 10.9817 102.429 12.975ZM113.796 7.685C114.21 7.685 114.494 8.38267 114.647 9.778C114.494 10.1613 114.241 10.353 113.888 10.353C113.643 10.307 113.397 10.0233 113.152 9.502L112.738 9.364C112.017 9.364 111.366 9.83933 110.783 10.79V10.997C110.783 11.227 111.864 11.6103 114.026 12.147C114.931 12.6837 115.383 13.3353 115.383 14.102C115.383 15.3593 114.371 16.4327 112.347 17.322L111.496 17.46C110.208 17.322 109.564 16.678 109.564 15.528V15.459C109.564 15.091 109.802 14.8763 110.277 14.815C110.645 14.815 110.89 15.1983 111.013 15.965L111.197 16.103H111.588C112.462 16.103 113.275 15.505 114.026 14.309V14.01C114.026 13.55 113.022 13.1207 111.013 12.722C109.955 12.2927 109.426 11.6947 109.426 10.928C109.426 9.93133 110.262 8.996 111.933 8.122C112.669 8.03 113.29 7.88433 113.796 7.685Z" fill="#0F3D1C"/>
</svg>
