<svg width="40" height="40" viewBox="0 0 40 40" fill="none" xmlns="http://www.w3.org/2000/svg">
<rect x="0.625" y="0.625" width="38.75" height="38.75" rx="19.375" stroke="#DAD7C4" stroke-width="1.25"/>
<g clip-path="url(#clip0_1231_2769)">
<path d="M27.6865 16.5615C27.514 15.9469 27.0058 15.4628 26.3604 15.2985C25.1907 15 20.5 15 20.5 15C20.5 15 15.8094 15 14.6396 15.2985C13.9942 15.4628 13.4859 15.9469 13.3134 16.5615C13 17.6756 13 20 13 20C13 20 13 22.3244 13.3134 23.4385C13.4859 24.0531 13.9942 24.5372 14.6396 24.7015C15.8094 25 20.5 25 20.5 25C20.5 25 25.1907 25 26.3604 24.7015C27.0058 24.5372 27.514 24.0531 27.6865 23.4385C28 22.3244 28 20 28 20C28 20 28 17.6756 27.6865 16.5615Z" fill="#252323"/>
<path d="M18.9688 22.1094L22.8892 19.9991L18.9688 17.8886V22.1094Z" fill="white"/>
</g>
<defs>
<clipPath id="clip0_1231_2769">
<rect width="15" height="10" fill="white" transform="translate(13 15)"/>
</clipPath>
</defs>
</svg>
